<?xml version="1.0" encoding="UTF-8" standalone="no"?>
<!-- Created with Inkscape (http://www.inkscape.org/) -->

<svg
   xmlns:dc="http://purl.org/dc/elements/1.1/"
   xmlns:cc="http://creativecommons.org/ns#"
   xmlns:rdf="http://www.w3.org/1999/02/22-rdf-syntax-ns#"
   xmlns:svg="http://www.w3.org/2000/svg"
   xmlns="http://www.w3.org/2000/svg"
   xmlns:sodipodi="http://sodipodi.sourceforge.net/DTD/sodipodi-0.dtd"
   xmlns:inkscape="http://www.inkscape.org/namespaces/inkscape"
   id="svg3371"
   version="1.1"
   inkscape:version="0.91 r13725"
   xml:space="preserve"
   width="815.81525"
   height="103.7185"
   viewBox="0 0 815.81525 103.7185"
   sodipodi:docname="sopra.svg"><metadata
     id="metadata3377"><rdf:RDF><cc:Work
         rdf:about=""><dc:format>image/svg+xml</dc:format><dc:type
           rdf:resource="http://purl.org/dc/dcmitype/StillImage" /><dc:title></dc:title></cc:Work></rdf:RDF></metadata><defs
     id="defs3375" /><sodipodi:namedview
     pagecolor="#ffffff"
     bordercolor="#666666"
     borderopacity="1"
     objecttolerance="10"
     gridtolerance="10"
     guidetolerance="10"
     inkscape:pageopacity="0"
     inkscape:pageshadow="2"
     inkscape:window-width="873"
     inkscape:window-height="844"
     id="namedview3373"
     showgrid="false"
     inkscape:zoom="1.4142136"
     inkscape:cx="435.22174"
     inkscape:cy="-11.607057"
     inkscape:window-x="65"
     inkscape:window-y="24"
     inkscape:window-maximized="0"
     inkscape:current-layer="g3379"
     fit-margin-top="0"
     fit-margin-left="0"
     fit-margin-right="0"
     fit-margin-bottom="0" /><g
     id="g3379"
     inkscape:groupmode="layer"
     inkscape:label="ink_ext_XXXXXX"
     transform="matrix(1.25,0,0,-1.25,-61.186,170.90161)"><g
       id="g3381"
       transform="matrix(0.1,0,0,0.1,-1.6,1.4862918)"><path
         d="m 4054.41,676.629 c -5.39,-3.559 -11.89,-7.629 -17.83,-11.051 l -1.81,-1.047 1.81,-0.211 c 116.51,-31.992 231.87,-30.789 254,41.899 28.64,93.851 -156.69,194.531 -244.17,242.511 -18.73,10.274 -26.88,3.856 -14.91,-9.882 55.22,-63.594 133.89,-188.719 22.91,-262.219"
         style="fill:#f47216;fill-opacity:1;fill-rule:nonzero;stroke:none"
         id="path3383"
         inkscape:connector-curvature="0" /><path
         d="m 5058.83,1088.17 -98.17,0 0,82.24 98.17,0 0,121.89 95.17,0 0,-121.89 156.57,0 0,-82.24 -156.57,0 0,-247.522 c 0,-61.929 17.26,-94.378 96.57,-94.378 30.35,0 64.44,8.691 64.44,8.691 l 0,-85.66 c -33.08,-4.481 -57.12,-7.129 -94.64,-7.129 -149.93,0 -161.54,108.039 -161.54,167.297 l 0,258.701"
         style="fill:#231f20;fill-opacity:1;fill-rule:nonzero;stroke:none"
         id="path3385"
         inkscape:connector-curvature="0" /><path
         d="m 6323.09,660.98 97.4805,0 0,509.906 -97.4805,0 0,-509.906 z"
         style="fill:#231f20;fill-opacity:1;fill-rule:nonzero;stroke:none"
         id="path3387"
         inkscape:connector-curvature="0" /><path
         d="m 6493.65,920.703 c 0,191.757 155,256.897 262.68,256.897 122.32,0 181.61,-70.15 181.61,-70.15 l 5.05,63.41 89.02,0 0,-510.891 -89.16,0 -4.91,67.492 c 0,0 -61.01,-67.602 -182.69,-67.602 -122.11,0 -261.6,70.942 -261.6,260.844 z m 99.06,-1.015 c 0,-138.887 114.44,-173.516 168.68,-173.516 103.51,0 176.55,58.508 176.55,175.516 0,117.022 -83.04,170.602 -177.55,170.602 -53.59,0 -167.68,-31.5 -167.68,-172.602"
         style="fill:#231f20;fill-opacity:1;fill-rule:nonzero;stroke:none"
         id="path3389"
         inkscape:connector-curvature="0" /><path
         d="m 6435.58,1288.6 c 0,35.2 -28.53,63.75 -63.74,63.75 -35.2,0 -63.75,-28.55 -63.75,-63.75 0,-35.22 28.55,-63.76 63.75,-63.76 35.21,0 63.74,28.54 63.74,63.76"
         style="fill:#231f20;fill-opacity:1;fill-rule:nonzero;stroke:none"
         id="path3391"
         inkscape:connector-curvature="0" /><path
         d="m 6251.89,1083.22 0,86.35 c -96.25,8.8 -163.8,-14.27 -216.45,-69.27 l -5.07,70.33 -92.43,0 0,-510.321 97.5,0 0,264.418 c 0,73.769 59.46,167.293 216.45,158.493"
         style="fill:#231f20;fill-opacity:1;fill-rule:nonzero;stroke:none"
         id="path3393"
         inkscape:connector-curvature="0" /><path
         d="m 5766.17,962.527 c 0,69.333 -69.78,127.133 -155.49,127.133 -91.79,0 -167.69,-56.63 -173.82,-127.133 l 329.31,0 z M 5334,918.77 c 0,159.51 117.86,261.92 275.34,261.92 156.41,0 263.88,-114.3 263.88,-253.124 0,0 0,-21.668 -2.07,-41.347 l -435.76,-1.856 c 4.16,-78.785 95.08,-138.152 188.95,-138.152 101.03,0 160.94,62.551 160.94,62.551 l 69.73,-61.321 C 5784.25,679.5 5707.05,658.82 5624.38,658.82 5452.51,658.82 5334,759.262 5334,914.824 l 0,3.946"
         style="fill:#231f20;fill-opacity:1;fill-rule:nonzero;stroke:none"
         id="path3395"
         inkscape:connector-curvature="0" /><path
         d="m 4751.99,964.695 c -98.12,17.532 -194.61,29.778 -194.61,75.525 0,29.81 29.59,56.03 115.49,56.03 63.83,0 137.46,-14.78 157.42,-59.99 l 90.46,38 c -34.62,69.5 -136.99,102.97 -254.66,102.97 -102.87,0 -213.28,-38.95 -213.28,-143.07 0,-90.195 82.09,-118.234 217.44,-143.703 90.43,-17.008 173.82,-25.637 173.82,-74.387 0,-30.761 -41.02,-70.191 -143.56,-70.191 -72.91,0 -146.45,15.293 -168.93,67.172 l -87.69,-36.813 c 35.95,-80.16 131.4,-121.609 241.99,-121.609 220.84,0 263.5,105.07 263.5,164.691 0,99.313 -98.81,127.758 -197.39,145.375"
         style="fill:#231f20;fill-opacity:1;fill-rule:nonzero;stroke:none"
         id="path3397"
         inkscape:connector-curvature="0" /><path
         d="m 1948.3,659.859 c -122.13,0 -182.64,77.61 -182.64,77.61 l 0,-214.867 -94.12,0 0,648.258 89.04,0 5.08,-63.41 c 0,0 59.24,70.13 181.59,70.13 107.65,0 262.65,-54.88 262.65,-256.877 0,-201.984 -139.46,-260.844 -261.6,-260.844 z m -5.1,432.431 c -94.53,0 -177.54,-53.59 -177.54,-170.602 0,-117.008 73.01,-175.516 176.53,-175.516 54.22,0 168.67,22 168.67,173.516 0,151.522 -114.1,172.602 -167.66,172.602"
         style="fill:#231f20;fill-opacity:1;fill-rule:nonzero;stroke:none"
         id="path3399"
         inkscape:connector-curvature="0" /><path
         d="m 2576.61,920.703 c 0,191.757 155,256.897 262.71,256.897 122.29,0 181.56,-70.15 181.56,-70.15 l 5.04,63.41 89.06,0 0,-510.891 -88.85,0 -5.25,67.492 c 0,0 -60.98,-67.602 -182.66,-67.602 -122.13,0 -261.61,70.942 -261.61,260.844 z m 99.07,-1.015 c 0,-138.887 114.41,-173.516 168.68,-173.516 103.51,0 176.52,58.508 176.52,175.516 0,117.022 -83.01,170.602 -177.52,170.602 -53.59,0 -167.68,-31.5 -167.68,-172.602"
         style="fill:#231f20;fill-opacity:1;fill-rule:nonzero;stroke:none"
         id="path3401"
         inkscape:connector-curvature="0" /><path
         d="m 2583.73,1083.22 0,86.35 c -96.25,8.8 -163.83,-14.27 -216.48,-69.27 l -5.04,70.33 -92.48,0 0,-510.321 97.52,0 0,264.418 c 0,73.769 59.47,167.293 216.48,158.493"
         style="fill:#231f20;fill-opacity:1;fill-rule:nonzero;stroke:none"
         id="path3403"
         inkscape:connector-curvature="0" /><path
         d="m 813.574,964.695 c -98.136,17.532 -194.59,29.778 -194.59,75.525 0,29.81 29.571,56.03 115.457,56.03 63.821,0 137.454,-14.78 157.414,-59.99 l 90.508,38 c -34.648,69.5 -137.031,102.97 -254.668,102.97 -102.871,0 -213.32,-38.95 -213.32,-143.07 0,-90.195 82.09,-118.234 217.48,-143.703 90.391,-17.008 173.829,-25.637 173.829,-74.387 0,-30.761 -41.055,-70.191 -143.582,-70.191 -72.903,0 -146.457,15.293 -168.938,67.172 l -87.676,-36.813 c 35.918,-80.16 131.387,-121.609 241.992,-121.609 220.782,0 263.5,105.07 263.5,164.691 0,99.313 -98.812,127.758 -197.406,145.375"
         style="fill:#231f20;fill-opacity:1;fill-rule:nonzero;stroke:none"
         id="path3405"
         inkscape:connector-curvature="0" /><path
         d="m 1334.72,746.172 c -80.14,0 -185.67,34.629 -185.67,173.516 0,141.102 117.05,169.772 185.67,169.772 68.61,0 185.66,-28.67 185.66,-169.772 0,-138.887 -105.53,-173.516 -185.66,-173.516 z m 0,431.428 c -130.41,0 -284.74,-65.14 -284.74,-256.897 0,-189.902 138.86,-263.683 284.74,-263.683 145.88,0 284.73,73.781 284.73,263.683 0,191.757 -154.33,256.897 -284.73,256.897"
         style="fill:#231f20;fill-opacity:1;fill-rule:nonzero;stroke:none"
         id="path3407"
         inkscape:connector-curvature="0" /><path
         d="m 4034.88,664.578 c 0,0 -146.69,-92.199 -405.57,-92.199 -100.3,0 -184.74,15.359 -220.45,50.492 -37.61,36.988 -58.01,99.309 -58.01,156.609 0,49.098 20.4,90.379 62.9,90.379 109.17,0 449.17,-172.937 621.13,-205.281"
         style="fill:#db1d2b;fill-opacity:1;fill-rule:nonzero;stroke:none"
         id="path3409"
         inkscape:connector-curvature="0" /><path
         d="m 3546.02,1199.2 c 5.39,3.56 11.9,7.62 17.83,11.04 l 1.82,1.06 -1.82,0.21 c -116.5,31.99 -231.86,30.78 -253.99,-41.9 -28.64,-93.85 156.69,-194.532 244.17,-242.512 18.73,-10.274 26.87,-3.856 14.9,9.882 -55.21,63.59 -133.89,188.72 -22.91,262.22"
         style="fill:#f47216;fill-opacity:1;fill-rule:nonzero;stroke:none"
         id="path3411"
         inkscape:connector-curvature="0" /><path
         d="m 3565.55,1211.25 c 0,0 146.69,92.2 405.58,92.2 100.3,0 184.74,-15.36 220.45,-50.49 37.61,-37 58.01,-99.31 58.01,-156.61 0,-49.1 -20.4,-90.39 -62.9,-90.39 -109.17,0 -449.18,172.95 -621.14,205.29"
         style="fill:#db1d2b;fill-opacity:1;fill-rule:nonzero;stroke:none"
         id="path3413"
         inkscape:connector-curvature="0" /></g></g></svg>