<?xml version="1.0" encoding="utf-8"?>
<!-- Generator: Adobe Illustrator 22.0.1, SVG Export Plug-In . SVG Version: 6.00 Build 0)  -->
<svg version="1.1" id="Calque_1" xmlns="http://www.w3.org/2000/svg" xmlns:xlink="http://www.w3.org/1999/xlink" x="0px" y="0px"
	 viewBox="0 0 468.5 219.6" style="enable-background:new 0 0 468.5 219.6;" xml:space="preserve">
<style type="text/css">
	.st0{fill-rule:evenodd;clip-rule:evenodd;fill:#3F455B;}
	.st1{fill:#3F455B;}
	.st2{fill:#E94D34;}
</style>
<path class="st0" d="M252.1,121.2V3.1h18.6c10.8,0,18.7,0.7,23.7,2.1c7.1,1.9,12.7,5.4,16.9,10.4c4.2,5.1,6.3,11.1,6.3,18
	c0,4.5-1,8.6-2.8,12.3c-1.9,3.7-5,7.1-9.3,10.3c7.1,3.4,12.4,7.6,15.7,12.6c3.3,5.1,5,11,5,17.9c0,6.6-1.7,12.7-5.2,18.1
	c-3.4,5.4-7.9,9.5-13.3,12.2c-5.4,2.7-12.9,4-22.5,4H252.1z M274.5,24.5v25h5c5.6,0,9.7-1.2,12.4-3.5c2.7-2.3,4.1-5.5,4.1-9.4
	c0-3.7-1.3-6.7-3.9-8.8c-2.6-2.2-6.5-3.3-11.8-3.3H274.5z M274.5,69.6v30.3h5.7c9.5,0,15.8-1.2,19.1-3.5c3.3-2.3,4.9-5.8,4.9-10.3
	c0-5.1-1.9-9.1-5.8-12c-3.9-2.9-10.3-4.4-19.2-4.4H274.5z"/>
<polygon class="st0" points="345.7,3.1 371.6,3.1 371.6,121.2 349.2,121.2 349.2,24.2 332.7,24.2 "/>
<path class="st0" d="M411.4,41.3h-21.9c0.6-12.8,4.6-22.8,12-30.1c7.4-7.3,16.9-11,28.5-11c7.2,0,13.5,1.5,19,4.5
	c5.5,3,9.9,7.4,13.2,13.1c3.3,5.7,4.9,11.5,4.9,17.4c0,7-2,14.6-6,22.7c-4,8.1-11.3,17.6-21.9,28.7l-13.3,14h42.1v20.7h-81.9v-10.8
	l36.5-37.2c8.8-8.9,14.7-16.1,17.6-21.6c2.9-5.4,4.4-10.3,4.4-14.7c0-4.6-1.5-8.3-4.5-11.3c-3-3-6.9-4.5-11.7-4.5
	c-4.8,0-8.8,1.8-12,5.4C413.3,30.2,411.6,35.1,411.4,41.3z"/>
<g>
	<path class="st1" d="M272,137.2c-11,0-19.9,8.9-19.9,19.8c0,11.1,8.8,19.8,19.9,19.8s19.9-8.7,19.9-19.8
		C291.9,146.1,283,137.2,272,137.2z M286.8,157c0,8.2-6.6,14.9-14.7,14.9c-8.1,0-14.7-6.7-14.7-14.9c0-8.5,6.3-14.9,14.7-14.9
		S286.8,148.5,286.8,157z"/>
	<path class="st1" d="M322.1,160.4c0,7.7-3,11.6-8.8,11.6c-5.9,0-8.8-3.9-8.8-11.6V138h-5.2v24c0,8.9,5.6,14.9,14,14.9
		c8.4,0,14-6,14-14.9v-24h-5.2V160.4z"/>
	<polygon class="st1" points="334.7,142.8 343.6,142.8 343.6,176 348.8,176 348.8,142.8 357.7,142.8 357.7,138 334.7,138 	"/>
	<path class="st1" d="M376.6,153.3l-2.7-1c-3.4-1.3-5.1-3-5.1-5.1c0-3.1,3.1-5.1,6-5.1c2.6,0,4.4,1.1,5.8,3.4l0.1,0.2l4.2-2.5
		l-0.1-0.2c-2.1-3.7-5.6-5.8-9.9-5.8c-5.5,0-11.3,3.5-11.3,10c0,5.4,4,7.9,8.3,9.7l2.6,1.1c3.1,1.3,6.3,3,6.3,6.9
		c0,4-2.9,7.1-6.7,7.1c-2,0-3.8-0.7-5.1-2.1c-1.2-1.3-1.9-3-1.9-4.8l0-0.3l-5.3,1.1l0,0.2c0.8,6.2,5.8,10.7,11.9,10.7
		c7,0,12.3-5.1,12.3-12C386.1,158,381.3,155.2,376.6,153.3z"/>
	<rect x="394.6" y="138" class="st1" width="5.2" height="38.1"/>
	<path class="st1" d="M417.9,138h-8V176h7.9c13.2,0,21.5-7.4,21.5-19.2C439.2,145.4,430.9,138,417.9,138z M434,157
		c0,6.5-3.1,14.3-17.6,14.3h-1.4v-28.5h1.4C431,142.8,434,150.5,434,157z"/>
	<polygon class="st1" points="468.1,142.8 468.1,138 447.4,138 447.4,176 468.1,176 468.1,171.3 452.6,171.3 452.6,157.6 
		467.6,157.6 467.6,152.8 452.6,152.8 452.6,142.8 	"/>
</g>
<g>
	<polygon class="st1" points="252.1,194.2 258.8,194.2 258.8,219.1 262.8,219.1 262.8,194.2 269.5,194.2 269.5,190.5 252.1,190.5 	
		"/>
	<polygon class="st1" points="300.9,201.8 288,201.8 288,190.5 284,190.5 284,219.1 288,219.1 288,205.6 300.9,205.6 300.9,219.1 
		304.9,219.1 304.9,190.5 300.9,190.5 	"/>
	<polygon class="st1" points="322.1,219.1 337.7,219.1 337.7,215.4 326.1,215.4 326.1,205.3 337.4,205.3 337.4,201.6 326.1,201.6 
		326.1,194.2 337.7,194.2 337.7,190.5 322.1,190.5 	"/>
	<path class="st1" d="M384.4,203.7c1.8-1.1,2.7-3.4,2.7-5.3c0-5.4-3.5-8-10.6-8h-3.7v28.6h6.8c4.8,0,10-2.1,10-8.1
		C389.7,207.6,387.4,204.6,384.4,203.7z M385.7,210.8c0,3.1-2.2,4.7-6.4,4.7h-2.4v-9.2h1.9C381.9,206.2,385.7,207,385.7,210.8z
		 M376.8,202.9v-8.8h0.7c3.4,0,5.7,0.7,5.7,4.4c0,3.7-2.3,4.5-5.8,4.5H376.8z"/>
	<path class="st1" d="M418.7,189.9c-8.3,0-15,6.7-15,14.9c0,8.4,6.6,14.9,15,14.9s15-6.6,15-14.9C433.7,196.6,427,189.9,418.7,189.9
		z M429.7,204.8c0,6.1-4.9,11.1-11,11.1s-11-5-11-11.1c0-6.3,4.7-11.1,11-11.1S429.7,198.4,429.7,204.8z"/>
	<polygon class="st1" points="459.9,204.1 468.1,190.5 463.5,190.5 457.6,200.5 452,190.5 447.4,190.5 455.3,204.1 446.3,219.1 
		450.8,219.1 457.5,207.8 464.1,219.1 468.6,219.1 	"/>
</g>
<polygon class="st2" points="153.4,48.5 135.4,66.6 179.9,111.1 135.4,155.6 153.5,173.7 216.1,111.1 "/>
<polygon class="st1" points="18.2,21.1 198.1,21.1 198.1,39.1 216.1,39.1 216.1,3.1 0.1,3.1 0.1,219.1 216.1,219.1 216.1,183.1 
	198.1,183.1 198.1,201.1 18.4,201.1 108,111.1 "/>
</svg>
