<?xml version="1.0" encoding="UTF-8" standalone="no"?>
<!-- Created with Inkscape (http://www.inkscape.org/) -->

<svg
   xmlns:dc="http://purl.org/dc/elements/1.1/"
   xmlns:cc="http://creativecommons.org/ns#"
   xmlns:rdf="http://www.w3.org/1999/02/22-rdf-syntax-ns#"
   xmlns:svg="http://www.w3.org/2000/svg"
   xmlns="http://www.w3.org/2000/svg"
   xmlns:sodipodi="http://sodipodi.sourceforge.net/DTD/sodipodi-0.dtd"
   xmlns:inkscape="http://www.inkscape.org/namespaces/inkscape"
   id="svg3395"
   version="1.1"
   inkscape:version="0.91 r13725"
   xml:space="preserve"
   width="982.5"
   height="231.25"
   viewBox="0 0 982.5 231.25"
   sodipodi:docname="tessares.svg"><metadata
     id="metadata3401"><rdf:RDF><cc:Work
         rdf:about=""><dc:format>image/svg+xml</dc:format><dc:type
           rdf:resource="http://purl.org/dc/dcmitype/StillImage" /><dc:title></dc:title></cc:Work></rdf:RDF></metadata><defs
     id="defs3399" /><sodipodi:namedview
     pagecolor="#ffffff"
     bordercolor="#666666"
     borderopacity="1"
     objecttolerance="10"
     gridtolerance="10"
     guidetolerance="10"
     inkscape:pageopacity="0"
     inkscape:pageshadow="2"
     inkscape:window-width="1855"
     inkscape:window-height="1056"
     id="namedview3397"
     showgrid="false"
     inkscape:zoom="1.3740458"
     inkscape:cx="492.31312"
     inkscape:cy="91.020138"
     inkscape:window-x="65"
     inkscape:window-y="24"
     inkscape:window-maximized="1"
     inkscape:current-layer="g3403" /><g
     id="g3403"
     inkscape:groupmode="layer"
     inkscape:label="ink_ext_XXXXXX"
     transform="matrix(1.25,0,0,-1.25,0,231.25)"><g
       id="g3405"
       transform="scale(0.1,0.1)"><path
         d="m 3158.83,919.711 -456.13,0 c 21.4,170.429 132.3,267.809 251.56,267.809 133.28,0 208.44,-95.66 204.57,-267.809 m -205.51,380.819 c -194.8,0 -386.17,-168.67 -392.46,-445.202 -6.09,-276.598 170.86,-441.867 398.91,-441.867 95.89,0 175.31,27.617 242.3,63.711 l -0.16,0.308 c 2.07,0.629 3.87,1.598 5.67,2.622 1.05,0.468 2.19,1.046 3.24,1.757 16.88,10.903 21.95,34.219 10.94,56.832 -12.89,26.137 -42.38,41.289 -66.21,34.219 -53.36,-27.461 -110.71,-44.648 -175.63,-44.648 -163.2,0 -271.13,114.808 -277.54,297.457 l 575.39,0 c 3.95,20.859 6.41,48.64 6.96,78.293 5.47,241.748 -113.95,396.518 -331.41,396.518"
         style="fill:#555759;fill-opacity:1;fill-rule:nonzero;stroke:none"
         id="path3407"
         inkscape:connector-curvature="0" /><path
         d="m 4505.98,921.391 c -95.71,36.558 -188.13,67.847 -186.25,146.129 1.44,64.34 51.75,121.76 158.9,121.76 56.72,0 105.04,-17.81 149.92,-45.08 l 0.16,0.35 c 26.41,-18.04 59.77,-10.39 74.88,17.58 14.65,27.03 6.25,63.01 -18.47,81.95 -57.23,33.01 -127.35,56.45 -205.74,56.45 -184.22,0 -295.4,-104.38 -298.36,-240.04 -3.21,-142.58 128.86,-200.041 248.98,-243.521 92.07,-34.68 192.97,-72.957 191.09,-159.918 -1.56,-73.082 -58.98,-132.262 -171.36,-132.262 -83.09,0 -147.93,28.16 -208.25,70.5 -23.36,15.359 -51.87,12.039 -69.64,-7.461 l -1.1,-1.398 c -2.26,-2.539 -4.33,-5.321 -6.17,-8.442 -16.6,-28.59 -8.24,-67.968 18.98,-87.847 0,-0.082 0.12,-0.2 0.2,-0.2 l 0,-0.23 c 72.97,-45.121 163.48,-76.25 258.2,-76.25 201.8,0 314.89,114.801 317.93,252.23 3.64,160.028 -132.15,210.457 -253.86,255.7"
         style="fill:#555759;fill-opacity:1;fill-rule:nonzero;stroke:none"
         id="path3409"
         inkscape:connector-curvature="0" /><path
         d="m 5442.34,644.359 c -83.9,-71.57 -153,-110.898 -235.5,-111.211 -84.18,-0.277 -148.29,38.551 -146.53,131.872 2.07,105.082 99.85,173.242 386.49,208.171 l -4.46,-228.832 z m -140.19,642.031 c -118.36,-0.43 -224.03,-43.83 -302.35,-87.54 -21.25,-12.58 -24.96,-41.02 -7.85,-65.39 17.74,-25.08 51.06,-36.02 74.3,-24.22 0.12,0 0.12,0.16 0.12,0.16 60.04,33.47 131.75,61.4 210.74,61.71 138.59,0.47 173.4,-101.17 171.44,-206.36 -363.9,-40.281 -527.07,-130.781 -530.5,-310.469 -2.89,-147.5 102.54,-233.672 246.36,-233.172 105.24,0.403 200.94,55.082 284.73,119.813 l 3.4,0 11.99,-71.25 0.16,0 c 1.33,-30.981 30.51,-56.063 65.08,-56.211 l 0.62,0 c 32.89,0.039 58.83,22.648 60.35,51.398 l 1.33,483.481 c 4.02,205.24 -81.13,338.79 -289.92,338.05"
         style="fill:#555759;fill-opacity:1;fill-rule:nonzero;stroke:none"
         id="path3411"
         inkscape:connector-curvature="0" /><path
         d="m 6985.98,919.711 -456.18,0 c 21.49,170.429 132.31,267.809 251.72,267.809 133.28,0 208.25,-95.66 204.46,-267.809 m -205.63,380.819 c -194.65,0 -386.01,-168.67 -392.23,-445.202 -6.24,-276.598 170.67,-441.867 398.83,-441.867 95.94,0 175.28,27.617 242.35,63.711 l -0.2,0.308 c 2.07,0.629 3.79,1.598 5.59,2.622 1.01,0.468 2.22,1.046 3.32,1.757 16.87,10.903 21.99,34.219 10.94,56.832 -12.86,26.137 -42.31,41.289 -66.25,34.219 -53.36,-27.461 -110.63,-44.648 -175.67,-44.648 -163.12,0 -271.17,114.808 -277.46,297.457 l 575.39,0 c 3.99,20.859 6.29,48.64 6.92,78.293 5.54,241.748 -113.91,396.518 -331.53,396.518"
         style="fill:#555759;fill-opacity:1;fill-rule:nonzero;stroke:none"
         id="path3413"
         inkscape:connector-curvature="0" /><path
         d="m 3771.52,921.391 c -95.62,36.558 -187.97,67.847 -186.21,146.129 1.41,64.34 51.76,121.76 158.83,121.76 56.76,0 105.2,-17.81 149.92,-45.08 l 0.32,0.35 c 26.28,-18.04 59.76,-10.39 74.8,17.58 14.57,27.03 6.29,63.01 -18.48,81.95 -57.11,33.01 -127.34,56.45 -205.86,56.45 -184.18,0 -295.19,-104.38 -298.2,-240.04 -3.2,-142.58 128.71,-200.041 248.75,-243.521 92.34,-34.68 193.24,-72.957 191.33,-159.918 -1.68,-73.082 -59.14,-132.262 -171.41,-132.262 -83.2,0 -147.93,28.16 -208.32,70.5 -23.28,15.359 -51.79,12.039 -69.49,-7.461 l -1.13,-1.398 c -2.35,-2.539 -4.46,-5.321 -6.21,-8.442 -16.72,-28.59 -8.13,-67.968 19.02,-87.847 0,-0.082 0.12,-0.2 0.12,-0.2 l -0.12,-0.23 c 72.89,-45.121 163.52,-76.25 258.36,-76.25 201.6,0 314.76,114.801 317.81,252.23 3.56,160.028 -132.07,210.457 -253.9,255.7"
         style="fill:#555759;fill-opacity:1;fill-rule:nonzero;stroke:none"
         id="path3415"
         inkscape:connector-curvature="0" /><path
         d="m 7600.98,921.391 c -95.63,36.558 -187.97,67.847 -186.21,146.129 1.52,64.34 51.83,121.76 158.9,121.76 56.64,0 105.12,-17.81 149.88,-45.08 l 0.24,0.35 c 26.33,-18.04 59.84,-10.39 74.92,17.58 14.53,27.03 6.17,63.01 -18.55,81.95 -57.04,33.01 -127.27,56.45 -205.75,56.45 -184.25,0 -295.39,-104.38 -298.32,-240.04 -3.24,-142.58 128.87,-200.041 249.03,-243.521 92.07,-34.68 193.04,-72.957 191.05,-159.918 -1.6,-73.082 -59.1,-132.262 -171.4,-132.262 -83.05,0 -147.78,28.16 -208.29,70.5 -23.32,15.359 -51.79,12.039 -69.68,-7.461 l -1.02,-1.398 c -2.23,-2.539 -4.26,-5.321 -6.09,-8.442 -16.68,-28.59 -8.32,-67.968 18.9,-87.847 0,-0.082 0.12,-0.2 0.2,-0.2 l -0.16,-0.23 c 73.21,-45.121 163.6,-76.25 258.28,-76.25 201.84,0 314.85,114.801 317.93,252.23 3.6,160.028 -132.03,210.457 -253.86,255.7"
         style="fill:#555759;fill-opacity:1;fill-rule:nonzero;stroke:none"
         id="path3417"
         inkscape:connector-curvature="0" /><path
         d="m 6253.12,1293.22 c -4.1,0.04 -7.92,0.24 -12.38,0.12 -92.97,-2.07 -177.58,-67.81 -235.19,-169.84 l -0.16,118.4 -0.27,0.11 c -2.23,35.71 -34.77,64.18 -73.32,64.46 l -4.14,-0.16 c -38.36,-1.64 -67.54,-31.21 -65.55,-67.03 l 0,-0.39 -0.59,0.08 0.16,-227.43 0.47,-0.03 0.19,-537.619 0.28,-0.121 c 2.22,-35.7 34.76,-64.141 73.36,-64.45 l 4.1,0.149 c 38.4,1.64 67.58,31.222 65.51,67.043 l 0,0.386 0.62,-0.039 -0.27,483.59 c 57.65,145.781 143.71,200.631 215.58,202.151 16.92,0.35 30.32,-0.66 42.54,-2.54 31.29,-0.94 54.38,24.41 52.5,59.41 -2.15,36.14 -30.43,68.75 -63.47,73.75"
         style="fill:#555759;fill-opacity:1;fill-rule:nonzero;stroke:none"
         id="path3419"
         inkscape:connector-curvature="0" /><path
         d="m 2463.2,497.52 c -13,27.851 -44.18,44.57 -69.84,37.269 0,0 -0.12,0 -0.12,-0.078 l 0,0.148 c -13.55,-3.347 -27.03,-5.929 -39.02,-6.211 -98.13,-2.339 -131.64,55.942 -131.84,160.43 l -0.35,478.052 138.83,0.16 c 28.79,2.89 48.94,30.43 45.19,62.3 -3.63,31.37 -29.1,55.12 -57.5,54.22 l -126.6,-0.08 -0.11,150.67 -0.28,0 c 0,0.54 0.12,1.01 0.12,1.56 0,40.39 -32.7,73.08 -73.05,73.08 -38.36,0 -69.41,-29.6 -72.5,-67.18 l 0.16,-158.05 -64.49,0 c -28.4,0.86 -53.91,-22.85 -57.46,-54.22 -3.75,-31.87 16.36,-59.41 45.15,-62.3 l 76.88,-0.08 0.43,-479.999 c 0.39,-167.109 61.95,-280.242 244.33,-275.82 39.22,0.937 81.21,10.578 119.57,22.418 l 0,0.082 c 25.51,7.218 35.59,35.738 22.58,63.629"
         style="fill:#555759;fill-opacity:1;fill-rule:nonzero;stroke:none"
         id="path3421"
         inkscape:connector-curvature="0" /><path
         d="m 1315.86,1748.11 c -44.49,84.06 -148.67,116.09 -232.7,71.56 l -456.441,-241.95 0.16,-0.2 c -3.399,-1.64 -6.879,-3.32 -10.16,-5.12 -162.5,-86.17 -224.418,-287.69 -138.321,-450.15 1.524,-2.81 3.082,-5.59 4.692,-8.36 0.23,0.12 0.5,0.27 0.738,0.27 l -0.859,-0.51 149.84,-282.65 0.242,0.191 c -76.172,160 -13.281,353.209 144.918,436.999 3.32,1.75 6.761,3.51 10.082,5.07 l -0.121,0.28 456.41,241.83 c 84.06,44.57 116.01,148.83 71.48,232.74"
         style="fill:#61b3e5;fill-opacity:1;fill-rule:nonzero;stroke:none"
         id="path3423"
         inkscape:connector-curvature="0" /><path
         d="M 481.289,99.0781 C 528.012,16.2695 633.051,-12.9102 715.82,33.7695 l 449.84,253.9105 -0.15,0.308 c 3.4,1.723 6.76,3.481 10.08,5.352 160.11,90.39 216.68,293.441 126.25,453.601 -1.57,2.77 -3.21,5.5 -4.93,8.321 -0.19,-0.121 -0.5,-0.321 -0.7,-0.364 l 0.86,0.473 -157.23,278.639 -0.27,-0.2 c 80.27,-157.97 22.66,-352.662 -133.24,-440.662 -3.28,-1.878 -6.639,-3.679 -9.959,-5.386 l 0,-0.242 L 546.52,333.648 C 463.789,286.941 434.488,181.898 481.25,99.0781"
         style="fill:#004a95;fill-opacity:1;fill-rule:nonzero;stroke:none"
         id="path3425"
         inkscape:connector-curvature="0" /><path
         d="m 1699.77,542.012 c 81.6,48.91 108.08,154.648 59.25,236.136 l -265.47,443.202 -0.15,-0.08 c -1.8,3.28 -3.71,6.6 -5.63,9.88 -94.53,157.74 -299.02,208.99 -456.72,114.57 -2.77,-1.68 -5.43,-3.47 -8.2,-5.11 0.16,-0.32 0.27,-0.51 0.35,-0.75 l -0.47,0.83 -274.492,-164.34 0.16,-0.39 c 155.821,84.49 352.032,31.8 443.942,-121.76 2,-3.28 3.87,-6.56 5.67,-9.84 l 0.19,0.15 265.51,-443.158 c 48.75,-81.641 154.53,-108.133 236.06,-59.34"
         style="fill:#bbd8ea;fill-opacity:1;fill-rule:nonzero;stroke:none"
         id="path3427"
         inkscape:connector-curvature="0" /><path
         d="M 26.9102,1052.87 304.02,616.941 l 0.199,0.11 c 1.91,-3.199 3.871,-6.481 5.859,-9.723 C 408.75,452.172 614.488,406.27 769.73,504.98 c 2.692,1.68 5.391,3.52 8.04,5.282 -0.149,0.226 -0.231,0.429 -0.348,0.777 l 0.547,-0.898 269.961,171.679 -0.16,0.27 C 894.18,593.539 696.68,640.961 600.781,792.051 c -2.109,3.168 -4.101,6.488 -6.011,9.648 L 594.531,801.621 317.5,1237.6 c -50.98,80.27 -157.422,103.94 -237.6211,52.93 -80.269525,-50.98 -103.9375,-157.34 -52.9687,-237.66"
         style="fill:#0071ce;fill-opacity:1;fill-rule:nonzero;stroke:none"
         id="path3429"
         inkscape:connector-curvature="0" /></g></g></svg>